<?xml version="1.0" encoding="utf-8"?>
<!-- Generator: Adobe Illustrator 16.0.4, SVG Export Plug-In . SVG Version: 6.00 Build 0)  -->
<!DOCTYPE svg PUBLIC "-//W3C//DTD SVG 1.1//EN" "http://www.w3.org/Graphics/SVG/1.1/DTD/svg11.dtd">
<svg version="1.1" id="Capa_1" xmlns="http://www.w3.org/2000/svg" xmlns:xlink="http://www.w3.org/1999/xlink" x="0px" y="0px"
	 width="808.765px" height="102.877px" viewBox="120.31 51.167 808.765 102.877"
	 enable-background="new 120.31 51.167 808.765 102.877" xml:space="preserve">
<g>
	<g>
		<path fill="#FFFFFF" d="M242.281,66.987h-28.46c-2.033-7.91-4.066-15.82-12.197-15.82h-32.525c-8.131,0-10.165,7.91-12.198,15.82
			h-28.459c-4.479,0-8.132,3.554-8.132,7.91v71.189c0,4.355,3.653,7.909,8.132,7.909h113.812c4.478,0,8.131-3.554,8.131-7.909
			V74.897C250.411,70.541,246.758,66.987,242.281,66.987z M185.361,145.578c-19.917,0-36.069-15.712-36.069-35.086
			c0-19.374,16.153-35.087,36.069-35.087s36.069,15.713,36.069,35.087C221.458,129.865,205.305,145.578,185.361,145.578z
			 M242.281,90.717h-16.264v-7.911h16.264V90.717z"/>
	</g>
	<g>
		<path fill="#AFAFAF" d="M209.041,111.881c1.016,0,1.84-0.802,1.84-1.791c0-0.989-0.824-1.791-1.84-1.791h-4.285V95.581h4.257
			c1.016,0,1.84-0.802,1.84-1.792c0-0.988-0.824-1.79-1.84-1.79h-4.257v-4.944c0-0.989-0.825-1.791-1.841-1.791
			s-1.84,0.802-1.84,1.791v4.944h-13.049v-4.944c0-0.989-0.824-1.791-1.841-1.791c-1.016,0-1.841,0.802-1.841,1.791v4.944h-13.076
			v-4.944c0-0.989-0.824-1.791-1.84-1.791c-1.017,0-1.84,0.802-1.84,1.791v4.944h-5.906c-1.017,0-1.841,0.802-1.841,1.79
			c0,0.989,0.824,1.792,1.841,1.792h5.906v12.719h-5.906c-1.017,0-1.841,0.802-1.841,1.791c0,0.988,0.824,1.791,1.841,1.791h5.906
			V124.6h-5.906c-1.017,0-1.841,0.802-1.841,1.791c0,0.989,0.824,1.79,1.841,1.79h5.906v4.943c0,0.989,0.824,1.791,1.84,1.791
			c1.016,0,1.84-0.802,1.84-1.791v-4.943h13.076v4.943c0,0.989,0.825,1.791,1.841,1.791c1.017,0,1.841-0.802,1.841-1.791v-4.943
			h13.076v4.943c0,0.989,0.824,1.791,1.84,1.791c1.017,0,1.84-0.802,1.84-1.791v-4.943h4.259c1.016,0,1.84-0.801,1.84-1.79
			c0-0.989-0.824-1.791-1.84-1.791h-4.285v-12.719H209.041z M201.102,95.581v12.719h-13.076V95.581H201.102z M171.268,95.581h13.076
			v12.719h-13.076V95.581z M171.268,124.627v-12.72h13.076v12.72H171.268z M201.102,124.627h-13.076v-12.72h13.076V124.627z"/>
	</g>
</g>
<g>
	<path fill="#FFFFFF" d="M267.882,67.143h22.807v86.901h-22.807V67.143z"/>
	<path fill="#FFFFFF" d="M372.036,153.995l-40.993-41.141v41.141h-22.807V67.093h9.241l41.141,40.994V67.093h22.807v86.902H372.036z
		"/>
	<path fill="#FFFFFF" d="M430.873,93.783c0-3.588-2.999-6.586-6.587-6.586c-3.588,0-6.488,2.999-6.488,6.586
		c0,3.588,2.9,6.488,6.488,6.488c8.454,0,16.122,4.031,20.987,10.322c3.688,4.621,5.801,10.421,5.801,16.811
		c0,14.843-11.944,26.64-26.739,26.64s-26.739-11.697-26.739-26.984h20.25c0,3.687,2.9,6.586,6.488,6.586
		c3.588,0,6.587-2.9,6.587-6.488c0-3.588-2.999-6.586-6.587-6.586c-14.844,0-26.641-11.797-26.641-26.641
		s11.797-26.739,26.641-26.739c14.845,0,26.739,11.796,26.739,26.641h-20.201V93.783z"/>
	<path fill="#FFFFFF" d="M465.426,66.995h68.47v22.708h-23.053v64.292h-22.807V89.704h-22.611V66.995z"/>
	<path fill="#FFFFFF" d="M532.863,153.995l40.551-86.902h10.322l40.895,86.902h-22.807l-5.309-11.354H560.93l-5.209,11.354H532.863z
		 M569.826,123.422h17.744l-8.799-19.12L569.826,123.422z"/>
	<path fill="#AFAFAF" d="M711.828,107.35v3.244c0,23.987-19.465,43.451-43.451,43.451s-43.352-19.464-43.352-43.451
		c0-23.986,19.365-43.451,43.352-43.451c11.945,0,22.709,4.866,30.574,12.632L682.828,95.75c-3.686-3.49-8.553-5.8-14.5-5.8
		c-10.912,0-20.496,8.7-20.496,20.644c0,11.944,9.83,20.645,20.496,20.645c6.832,0,13.223-3.343,16.811-8.553h-16.811v-15.287h43.5
		V107.35z"/>
	<path fill="#AFAFAF" d="M774.744,153.995l-13.42-23.052H747.17v23.052h-22.809V67.093h36.619c17.598,0,31.998,14.353,31.998,31.999
		c0,9.29-4.029,17.597-10.32,23.396l18.432,31.507H774.744z M747.17,111.282h14.154c6.932,0,12.535-5.456,12.535-12.387
		c0-6.93-5.555-12.534-12.535-12.534H747.17V111.282z"/>
	<path fill="#AFAFAF" d="M812.197,67.143h22.809v86.901h-22.809V67.143z"/>
	<path fill="#AFAFAF" d="M852.504,67.143h32.193c23.988,0,43.451,19.464,43.451,43.451c0,23.987-19.463,43.451-43.451,43.451
		h-32.193V67.143z M875.211,131.533h9.635c11.354,0,20.645-9.29,20.645-20.645c0-11.256-9.291-20.497-20.645-20.497h-9.635V131.533z
		"/>
</g>
</svg>
